<mxfile host="app.diagrams.net" modified="2021-12-20T08:57:24.502Z" agent="5.0 (Windows NT 10.0; Win64; x64) AppleWebKit/537.36 (KHTML, like Gecko) Chrome/93.0.4577.63 Safari/537.36" etag="zN1d1sbaiWBq5PVu5sTb" version="15.9.4" type="github">
  <diagram id="f13M-17JANVtK8ch0CB_" name="Page-1">
    <mxGraphModel dx="1002" dy="834" grid="1" gridSize="10" guides="1" tooltips="1" connect="1" arrows="1" fold="1" page="1" pageScale="1" pageWidth="827" pageHeight="1169" math="0" shadow="0">
      <root>
        <mxCell id="0" />
        <mxCell id="1" parent="0" />
        <mxCell id="vmBvw-aaUTXToiUhIZ86-4" value="" style="shape=cube;whiteSpace=wrap;html=1;boundedLbl=1;backgroundOutline=1;darkOpacity=0.05;darkOpacity2=0.1;" vertex="1" parent="1">
          <mxGeometry x="270" y="410" width="120" height="80" as="geometry" />
        </mxCell>
        <mxCell id="vmBvw-aaUTXToiUhIZ86-3" style="edgeStyle=none;rounded=0;orthogonalLoop=1;jettySize=auto;html=1;entryX=-0.01;entryY=0.442;entryDx=0;entryDy=0;entryPerimeter=0;" edge="1" parent="1" target="vmBvw-aaUTXToiUhIZ86-2">
          <mxGeometry relative="1" as="geometry">
            <mxPoint x="150" y="453" as="sourcePoint" />
          </mxGeometry>
        </mxCell>
        <mxCell id="vmBvw-aaUTXToiUhIZ86-1" value="医生" style="shape=umlActor;verticalLabelPosition=bottom;verticalAlign=top;html=1;outlineConnect=0;" vertex="1" parent="1">
          <mxGeometry x="100" y="410" width="50" height="90" as="geometry" />
        </mxCell>
        <mxCell id="vmBvw-aaUTXToiUhIZ86-30" value="&lt;font style=&quot;font-size: 14px&quot;&gt;调用&lt;/font&gt;" style="edgeStyle=orthogonalEdgeStyle;rounded=0;orthogonalLoop=1;jettySize=auto;html=1;exitX=1;exitY=0.5;exitDx=0;exitDy=0;entryX=0.5;entryY=0;entryDx=0;entryDy=0;fontSize=14;" edge="1" parent="1" source="vmBvw-aaUTXToiUhIZ86-2" target="vmBvw-aaUTXToiUhIZ86-23">
          <mxGeometry x="-0.3651" relative="1" as="geometry">
            <mxPoint as="offset" />
          </mxGeometry>
        </mxCell>
        <mxCell id="vmBvw-aaUTXToiUhIZ86-2" value="" style="rounded=0;whiteSpace=wrap;html=1;" vertex="1" parent="1">
          <mxGeometry x="230" y="400" width="240" height="120" as="geometry" />
        </mxCell>
        <mxCell id="vmBvw-aaUTXToiUhIZ86-5" value="&lt;font style=&quot;font-size: 14px&quot;&gt;master&lt;/font&gt;" style="shape=cube;whiteSpace=wrap;html=1;boundedLbl=1;backgroundOutline=1;darkOpacity=0.05;darkOpacity2=0.1;size=10;rotation=0;fillColor=#ffe6cc;strokeColor=#d79b00;direction=south;" vertex="1" parent="1">
          <mxGeometry x="250" y="430" width="90" height="70" as="geometry" />
        </mxCell>
        <mxCell id="vmBvw-aaUTXToiUhIZ86-6" value="&lt;font style=&quot;font-size: 14px&quot;&gt;master&lt;/font&gt;" style="shape=cube;whiteSpace=wrap;html=1;boundedLbl=1;backgroundOutline=1;darkOpacity=0.05;darkOpacity2=0.1;size=10;rotation=0;fillColor=#ffe6cc;strokeColor=#d79b00;direction=south;" vertex="1" parent="1">
          <mxGeometry x="360" y="430" width="90" height="70" as="geometry" />
        </mxCell>
        <mxCell id="vmBvw-aaUTXToiUhIZ86-7" value="&lt;font style=&quot;font-size: 18px&quot;&gt;软件界面&lt;/font&gt;" style="text;html=1;strokeColor=none;fillColor=none;align=center;verticalAlign=middle;whiteSpace=wrap;rounded=0;" vertex="1" parent="1">
          <mxGeometry x="284" y="400" width="130" height="30" as="geometry" />
        </mxCell>
        <mxCell id="vmBvw-aaUTXToiUhIZ86-14" value="数据库" style="shape=datastore;whiteSpace=wrap;html=1;fontSize=18;fillColor=#f5f5f5;strokeColor=#666666;gradientColor=#b3b3b3;" vertex="1" parent="1">
          <mxGeometry x="278.5" y="610" width="141" height="90" as="geometry" />
        </mxCell>
        <mxCell id="vmBvw-aaUTXToiUhIZ86-18" value="&lt;font style=&quot;font-size: 14px&quot;&gt;涂片数据&lt;/font&gt;" style="endArrow=classic;html=1;rounded=0;fontSize=18;exitX=0.297;exitY=1.013;exitDx=0;exitDy=0;exitPerimeter=0;entryX=0.15;entryY=0.05;entryDx=0;entryDy=0;entryPerimeter=0;" edge="1" parent="1" source="vmBvw-aaUTXToiUhIZ86-2" target="vmBvw-aaUTXToiUhIZ86-14">
          <mxGeometry width="50" height="50" relative="1" as="geometry">
            <mxPoint x="290" y="780" as="sourcePoint" />
            <mxPoint x="340" y="730" as="targetPoint" />
          </mxGeometry>
        </mxCell>
        <mxCell id="vmBvw-aaUTXToiUhIZ86-21" value="" style="endArrow=classic;html=1;rounded=0;fontSize=14;entryX=0.708;entryY=1;entryDx=0;entryDy=0;entryPerimeter=0;exitX=0.852;exitY=0.036;exitDx=0;exitDy=0;exitPerimeter=0;" edge="1" parent="1" source="vmBvw-aaUTXToiUhIZ86-14" target="vmBvw-aaUTXToiUhIZ86-2">
          <mxGeometry width="50" height="50" relative="1" as="geometry">
            <mxPoint x="400" y="610" as="sourcePoint" />
            <mxPoint x="410" y="560" as="targetPoint" />
          </mxGeometry>
        </mxCell>
        <mxCell id="vmBvw-aaUTXToiUhIZ86-22" value="查询结果" style="edgeLabel;html=1;align=center;verticalAlign=middle;resizable=0;points=[];fontSize=14;" vertex="1" connectable="0" parent="vmBvw-aaUTXToiUhIZ86-21">
          <mxGeometry x="-0.0544" relative="1" as="geometry">
            <mxPoint as="offset" />
          </mxGeometry>
        </mxCell>
        <mxCell id="vmBvw-aaUTXToiUhIZ86-23" value="" style="rounded=0;whiteSpace=wrap;html=1;" vertex="1" parent="1">
          <mxGeometry x="540" y="585" width="240" height="120" as="geometry" />
        </mxCell>
        <mxCell id="vmBvw-aaUTXToiUhIZ86-24" value="&lt;font style=&quot;font-size: 14px&quot;&gt;GPU Server&amp;nbsp;&lt;/font&gt;" style="shape=cube;whiteSpace=wrap;html=1;boundedLbl=1;backgroundOutline=1;darkOpacity=0.05;darkOpacity2=0.1;size=10;rotation=0;fillColor=#eeeeee;strokeColor=#36393d;direction=south;" vertex="1" parent="1">
          <mxGeometry x="560" y="620" width="100" height="70" as="geometry" />
        </mxCell>
        <mxCell id="vmBvw-aaUTXToiUhIZ86-25" value="&lt;font style=&quot;font-size: 14px&quot;&gt;GPU Server&amp;nbsp;&lt;/font&gt;" style="shape=cube;whiteSpace=wrap;html=1;boundedLbl=1;backgroundOutline=1;darkOpacity=0.05;darkOpacity2=0.1;size=10;rotation=0;fillColor=#eeeeee;strokeColor=#36393d;direction=south;" vertex="1" parent="1">
          <mxGeometry x="670" y="620" width="100" height="70" as="geometry" />
        </mxCell>
        <mxCell id="vmBvw-aaUTXToiUhIZ86-26" value="&lt;font style=&quot;font-size: 18px&quot;&gt;检测识别算法&lt;/font&gt;" style="text;html=1;strokeColor=none;fillColor=none;align=center;verticalAlign=middle;whiteSpace=wrap;rounded=0;" vertex="1" parent="1">
          <mxGeometry x="595" y="590" width="130" height="30" as="geometry" />
        </mxCell>
        <mxCell id="vmBvw-aaUTXToiUhIZ86-27" value="结果写入" style="endArrow=classic;html=1;rounded=0;fontSize=14;exitX=-0.003;exitY=0.437;exitDx=0;exitDy=0;exitPerimeter=0;" edge="1" parent="1" source="vmBvw-aaUTXToiUhIZ86-23">
          <mxGeometry width="50" height="50" relative="1" as="geometry">
            <mxPoint x="480.00199999999984" y="704.9999999999999" as="sourcePoint" />
            <mxPoint x="420" y="637" as="targetPoint" />
            <Array as="points">
              <mxPoint x="470" y="637" />
            </Array>
          </mxGeometry>
        </mxCell>
        <mxCell id="vmBvw-aaUTXToiUhIZ86-29" value="骨髓涂片" style="endArrow=classic;html=1;rounded=0;fontSize=14;exitX=1.004;exitY=0.619;exitDx=0;exitDy=0;exitPerimeter=0;" edge="1" parent="1" source="vmBvw-aaUTXToiUhIZ86-14">
          <mxGeometry width="50" height="50" relative="1" as="geometry">
            <mxPoint x="549.28" y="647.44" as="sourcePoint" />
            <mxPoint x="540" y="666" as="targetPoint" />
            <Array as="points">
              <mxPoint x="540" y="666" />
            </Array>
          </mxGeometry>
        </mxCell>
      </root>
    </mxGraphModel>
  </diagram>
</mxfile>
